HIERARCHY
ROOT ui
{
	 OFFSET 0 0 0
	 CHANNELS 3 XPosition YPosition Z Position
	 EndSite
	 {
	 OFFSET 0 -1 0
	 }
}
ROOT li
{
	 OFFSET 0 0 0
	 CHANNELS 3 XPosition YPosition Z Position
	 EndSite
	 {
	 OFFSET 0 -1 0
	 }
}
ROOT ul
{
	 OFFSET 0 0 0
	 CHANNELS 3 XPosition YPosition Z Position
	 EndSite
	 {
	 OFFSET 0 -1 0
	 }
}
ROOT ll
{
	 OFFSET 0 0 0
	 CHANNELS 3 XPosition YPosition Z Position
	 EndSite
	 {
	 OFFSET 0 -1 0
	 }
}
ROOT tt
{
	 OFFSET 0 0 0
	 CHANNELS 3 XPosition YPosition Z Position
	 EndSite
	 {
	 OFFSET 0 -1 0
	 }
}
ROOT tb
{
	 OFFSET 0 0 0
	 CHANNELS 3 XPosition YPosition Z Position
	 EndSite
	 {
	 OFFSET 0 -1 0
	 }
}
ROOT td
{
	 OFFSET 0 0 0
	 CHANNELS 3 XPosition YPosition Z Position
	 EndSite
	 {
	 OFFSET 0 -1 0
	 }
}
ROOT v
{
	 OFFSET 0 0 0
	 CHANNELS 3 XPosition YPosition Z Position
	 EndSite
	 {
	 OFFSET 0 -1 0
	 }
}
ROOT bn
{
	 OFFSET 0 0 0
	 CHANNELS 3 XPosition YPosition Z Position
	 EndSite
	 {
	 OFFSET 0 -1 0
	 }
}
MOTION
Frames: 13
Frame Time: 0.002
-0.0115167236328125	-0.003022773027420044	0		0.5418018188476562	-2.570016845703125	0		-0.9152154541015625	-0.07803318023681641	0		-0.5815975952148438	-2.384073974609375	0		1.5896131591796876	-1.352236328125	0		2.849638427734375	-0.337340576171875	0		4.20441455078125	0.1966983642578125	0		5.88659521484375	0.43583010864257815	0		-0.29880007934570313	5.84574658203125	0		
-0.008416664123535157	-3.683299943804741E-5	0		0.5298526611328125	-2.56890478515625	0		-0.968158447265625	-0.07953977966308594	0		-0.63449853515625	-2.3775849609375	0		1.5947227783203124	-1.3462882080078125	0		2.885555908203125	-0.354681884765625	0		4.2162333984375	0.1675531463623047	0		5.8907451171875	0.4437332763671875	0		-0.3166260986328125	5.84892236328125	0		
-0.001295567035675049	0.006906272888183594	0		0.55096435546875	-2.559093505859375	0		-0.9311017456054688	-0.0798492660522461	0		-0.6122955322265625	-2.357766845703125	0		1.5989407958984374	-1.3263411865234376	0		2.90184912109375	-0.3278593444824219	0		4.23234765625	0.173358154296875	0		5.89588134765625	0.4516126708984375	0		-0.3505379638671875	5.84323388671875	0		
-0.0083153076171875	-3.179800137877464E-5	0		0.541048095703125	-2.550013916015625	0		-0.9470068969726563	-0.07369380950927734	0		-0.6232175903320313	-2.34966064453125	0		1.626068359375	-1.3146063232421874	0		2.899744140625	-0.3438854064941406	0		4.2283388671875	0.16732933044433593	0		5.8867880859375	0.43560348510742186	0		-0.31734658813476563	5.8499453125	0		
-0.008291787147521972	-3.7556000053882596E-5	0		0.5390034790039062	-2.5530107421875	0		-0.9350740966796875	-0.08379071807861328	0		-0.6232322998046875	-2.349656494140625	0		1.5901519775390625	-1.3053184814453125	0		2.913859375	-0.33306356811523435	0		4.23416943359375	0.14520208740234375	0		5.88681884765625	0.43550180053710935	0		-0.2972731628417969	5.8447666015625	0		
-0.008286535263061523	-4.8457000404596326E-5	0		0.5140106811523437	-2.54780810546875	0		-0.9720598754882812	-0.082455810546875	0		-0.6212494506835937	-2.3476748046875	0		1.6341331787109374	-1.3057491455078125	0		2.91979638671875	-0.34017764282226565	0		4.23910546875	0.13707435607910157	0		5.88683154296875	0.43539010620117186	0		-0.29716796875	5.8447607421875	0		
0.014665683746337891	-0.004269746780395508	0		0.5429534912109375	-2.548092529296875	0		-0.9561356201171874	-0.08959741973876953	0		-0.6502203979492187	-2.338421142578125	0		1.59630615234375	-1.2824554443359375	0		2.902967529296875	-0.3190941162109375	0		4.24507861328125	0.13492999267578126	0		5.8908994140625	0.443234130859375	0		-0.28199615478515627	5.853615234375	0		
-0.0012603060007095337	0.006852069854736328	0		0.5219639282226562	-2.538935302734375	0		-0.9561622924804688	-0.08960094451904296	0		-0.6222171020507813	-2.33068115234375	0		1.633328125	-1.2748365478515624	0		2.91785546875	-0.3283011474609375	0		4.24505615234375	0.134832763671875	0		5.89088232421875	0.44310723876953123	0		-0.31595916748046876	5.848904296875	0		
0.01460302734375	-0.004316133022308349	0		0.5348973388671875	-2.537086669921875	0		-0.956201416015625	-0.0896085205078125	0		-0.6612957153320312	-2.330344970703125	0		1.5834757080078126	-1.25144384765625	0		2.94197265625	-0.3105958251953125	0		4.24994921875	0.12668528747558594	0		5.88678173828125	0.4350103759765625	0		-0.3158893737792969	5.84888525390625	0		
-0.008409895896911622	-1.389559954404831E-4	0		0.5080443420410157	-2.50988427734375	0		-0.9562528076171875	-0.08961994171142579	0		-0.6452634887695312	-2.31650634765625	0		1.62740087890625	-1.251898193359375	0		2.9348994140625	-0.3126166687011719	0		4.25482958984375	0.1185324478149414	0		5.8908115234375	0.44283544921875	0		-0.29587615966796876	5.84368212890625	0		
0.01448996353149414	-0.004378800868988037	0		0.5079341125488281	-2.509926513671875	0		-0.9463270263671875	-0.09072499847412109	0		-0.6734410400390625	-2.3242744140625	0		1.5824332275390625	-1.238556640625	0		2.939947265625	-0.2997502136230469	0		4.2596962890625	0.1103750228881836	0		5.89975634765625	0.44261099243164065	0		-0.31578387451171874	5.84883447265625	0		
-0.008551655769348144	-2.07396000623703E-4	0		0.4866737670898437	-2.52478173828125	0		-0.9323898315429687	-0.0888695297241211	0		-0.6565730590820312	-2.325451171875	0		1.5904212646484375	-1.22869482421875	0		2.92179150390625	-0.307678466796875	0		4.244611328125	0.10939459991455078	0		5.90375830078125	0.45042779541015626	0		-0.2797268981933594	5.8514794921875	0		
-0.0015851409435272217	0.006691627979278565	0		0.5177728271484375	-2.498110107421875	0		-0.916362060546875	-0.07503486633300781	0		-0.6626044921875	-2.31342236328125	0		1.5914554443359374	-1.21177197265625	0		2.944959716796875	-0.27798019409179686	0		4.265498046875	0.10708740234375	0		5.903669921875	0.4502793579101563	0		-0.27872259521484377	5.8504384765625	0		
